<?xml version="1.0" encoding="UTF-8" standalone="no"?>
<!DOCTYPE svg PUBLIC "-//W3C//DTD SVG 1.1//EN"
 "http://www.w3.org/Graphics/SVG/1.1/DTD/svg11.dtd">
<!-- Generated by graphviz version 2.30.1 (20180420.1509)
 -->
<!-- Title: %3 Pages: 1 -->
<svg width="514pt" height="360pt"
 viewBox="0.00 0.00 513.87 360.00" xmlns="http://www.w3.org/2000/svg" xmlns:xlink="http://www.w3.org/1999/xlink">
<g id="graph0" class="graph" transform="scale(1 1) rotate(0) translate(4 356)">
<title>%3</title>
<polygon fill="#333333" stroke="#333333" points="-4,5 -4,-356 510.866,-356 510.866,5 -4,5"/>
<text text-anchor="middle" x="252.933" y="-9.2" font-family="Times,serif" font-size="16.00" fill="white">Network Map</text>
<!-- R5 -->
<g id="node1" class="node"><title>R5</title>
<polygon fill="#006699" stroke="#006699" points="455.866,-351.5 379.866,-351.5 379.866,-278.5 455.866,-278.5 455.866,-351.5"/>
<text text-anchor="middle" x="417.866" y="-311.3" font-family="Helvetica,sans-Serif" font-size="14.00" fill="white">R5</text>
</g>
<!-- SW2 -->
<g id="node2" class="node"><title>SW2</title>
<polygon fill="#006699" stroke="#006699" points="216.366,-351.5 127.366,-351.5 127.366,-278.5 216.366,-278.5 216.366,-351.5"/>
<text text-anchor="middle" x="171.866" y="-311.3" font-family="Helvetica,sans-Serif" font-size="14.00" fill="white">SW2</text>
</g>
<!-- R6 -->
<g id="node3" class="node"><title>R6</title>
<polygon fill="#006699" stroke="#006699" points="455.866,-225.5 379.866,-225.5 379.866,-152.5 455.866,-152.5 455.866,-225.5"/>
<text text-anchor="middle" x="417.866" y="-185.3" font-family="Helvetica,sans-Serif" font-size="14.00" fill="white">R6</text>
</g>
<!-- R1 -->
<g id="node4" class="node"><title>R1</title>
<polygon fill="#006699" stroke="#006699" points="86.8663,-225.5 10.8663,-225.5 10.8663,-152.5 86.8663,-152.5 86.8663,-225.5"/>
<text text-anchor="middle" x="48.8663" y="-185.3" font-family="Helvetica,sans-Serif" font-size="14.00" fill="white">R1</text>
</g>
<!-- R4 -->
<g id="node5" class="node"><title>R4</title>
<polygon fill="#006699" stroke="#006699" points="332.866,-351.5 256.866,-351.5 256.866,-278.5 332.866,-278.5 332.866,-351.5"/>
<text text-anchor="middle" x="294.866" y="-311.3" font-family="Helvetica,sans-Serif" font-size="14.00" fill="white">R4</text>
</g>
<!-- SW1 -->
<g id="node6" class="node"><title>SW1</title>
<polygon fill="#006699" stroke="#006699" points="277.366,-99.5 188.366,-99.5 188.366,-26.5 277.366,-26.5 277.366,-99.5"/>
<text text-anchor="middle" x="232.866" y="-59.3" font-family="Helvetica,sans-Serif" font-size="14.00" fill="white">SW1</text>
</g>
<!-- SW1&#45;&#45;R1 -->
<g id="edge1" class="edge"><title>SW1&#45;&#45;R1</title>
<path fill="none" stroke="green" stroke-dasharray="5,2" d="M188.55,-66.4148C150.371,-70.915 96.5505,-83.4567 64.8663,-118 56.3555,-127.279 52.0698,-140.132 50,-152.295"/>
<text text-anchor="middle" x="114.866" y="-122.3" font-family="Courier,monospace" font-size="14.00" fill="white"> &#160;&#160;&#160;&#160;&#160;&#160;&#160;&#160;&#160;&#160;&#160;</text>
<text text-anchor="middle" x="25" y="-141.095" font-family="Courier,monospace" font-size="14.00" fill="white">Eth0/0</text>
<text text-anchor="middle" x="163.55" y="-55.2148" font-family="Courier,monospace" font-size="14.00" fill="white">Eth0/1</text>
</g>
<!-- R2 -->
<g id="node8" class="node"><title>R2</title>
<polygon fill="#006699" stroke="#006699" points="209.866,-225.5 133.866,-225.5 133.866,-152.5 209.866,-152.5 209.866,-225.5"/>
<text text-anchor="middle" x="171.866" y="-185.3" font-family="Helvetica,sans-Serif" font-size="14.00" fill="white">R2</text>
</g>
<!-- SW1&#45;&#45;R2 -->
<g id="edge2" class="edge"><title>SW1&#45;&#45;R2</title>
<path fill="none" stroke="green" stroke-dasharray="5,2" d="M188.498,-95.7807C182.177,-102.375 176.574,-109.833 172.866,-118 168.094,-128.514 166.725,-140.864 166.892,-152.24"/>
<text text-anchor="middle" x="222.866" y="-122.3" font-family="Courier,monospace" font-size="14.00" fill="white"> &#160;&#160;&#160;&#160;&#160;&#160;&#160;&#160;&#160;&#160;&#160;</text>
<text text-anchor="middle" x="141.892" y="-141.04" font-family="Courier,monospace" font-size="14.00" fill="white">Eth0/0</text>
<text text-anchor="middle" x="163.498" y="-84.5807" font-family="Courier,monospace" font-size="14.00" fill="white">Eth0/2</text>
</g>
<!-- R3 -->
<g id="node7" class="node"><title>R3</title>
<polygon fill="#006699" stroke="#006699" points="332.866,-225.5 256.866,-225.5 256.866,-152.5 332.866,-152.5 332.866,-225.5"/>
<text text-anchor="middle" x="294.866" y="-185.3" font-family="Helvetica,sans-Serif" font-size="14.00" fill="white">R3</text>
</g>
<!-- SW1&#45;&#45;R3 -->
<g id="edge3" class="edge"><title>SW1&#45;&#45;R3</title>
<path fill="none" stroke="green" stroke-dasharray="5,2" d="M261.718,-99.522C265.805,-105.482 269.69,-111.762 272.866,-118 278.3,-128.671 282.71,-140.943 286.115,-152.202"/>
<text text-anchor="middle" x="329.866" y="-122.3" font-family="Courier,monospace" font-size="14.00" fill="white"> &#160;&#160;&#160;&#160;&#160;&#160;&#160;&#160;&#160;&#160;&#160;</text>
<text text-anchor="middle" x="261.115" y="-141.002" font-family="Courier,monospace" font-size="14.00" fill="white">Eth0/0</text>
<text text-anchor="middle" x="236.718" y="-103.322" font-family="Courier,monospace" font-size="14.00" fill="white">Eth0/3</text>
</g>
<!-- SW1&#45;&#45;R6 -->
<g id="edge4" class="edge"><title>SW1&#45;&#45;R6</title>
<path fill="none" stroke="green" stroke-dasharray="5,2" d="M277.145,-70.5939C309.973,-77.4931 354.019,-91.2332 383.866,-118 394.126,-127.201 401.607,-140.182 406.896,-152.471"/>
<text text-anchor="middle" x="446.866" y="-122.3" font-family="Courier,monospace" font-size="14.00" fill="white"> &#160;&#160;&#160;&#160;&#160;&#160;&#160;&#160;&#160;&#160;&#160;</text>
<text text-anchor="middle" x="381.896" y="-141.271" font-family="Courier,monospace" font-size="14.00" fill="white">Eth0/1</text>
<text text-anchor="middle" x="302.145" y="-59.3939" font-family="Courier,monospace" font-size="14.00" fill="white">Eth0/5</text>
</g>
<!-- R3&#45;&#45;R4 -->
<g id="edge6" class="edge"><title>R3&#45;&#45;R4</title>
<path fill="none" stroke="green" stroke-dasharray="5,2" d="M294.866,-225.533C294.866,-242.137 294.866,-261.857 294.866,-278.461"/>
<text text-anchor="middle" x="344.866" y="-248.3" font-family="Courier,monospace" font-size="14.00" fill="white"> &#160;&#160;&#160;&#160;&#160;&#160;&#160;&#160;&#160;&#160;&#160;</text>
<text text-anchor="middle" x="269.866" y="-267.261" font-family="Courier,monospace" font-size="14.00" fill="white">Eth0/0</text>
<text text-anchor="middle" x="269.866" y="-229.333" font-family="Courier,monospace" font-size="14.00" fill="white">Eth0/1</text>
</g>
<!-- R3&#45;&#45;R5 -->
<g id="edge7" class="edge"><title>R3&#45;&#45;R5</title>
<path fill="none" stroke="green" stroke-dasharray="5,2" d="M333.047,-208.661C359.694,-221.978 391.282,-238.47 395.866,-244 403.915,-253.709 409.029,-266.377 412.274,-278.264"/>
<text text-anchor="middle" x="455.866" y="-248.3" font-family="Courier,monospace" font-size="14.00" fill="white"> &#160;&#160;&#160;&#160;&#160;&#160;&#160;&#160;&#160;&#160;&#160;</text>
<text text-anchor="middle" x="387.274" y="-267.064" font-family="Courier,monospace" font-size="14.00" fill="white">Eth0/0</text>
<text text-anchor="middle" x="358.047" y="-197.461" font-family="Courier,monospace" font-size="14.00" fill="white">Eth0/2</text>
</g>
<!-- R2&#45;&#45;SW2 -->
<g id="edge5" class="edge"><title>R2&#45;&#45;SW2</title>
<path fill="none" stroke="green" stroke-dasharray="5,2" d="M171.866,-225.533C171.866,-242.137 171.866,-261.857 171.866,-278.461"/>
<text text-anchor="middle" x="221.866" y="-248.3" font-family="Courier,monospace" font-size="14.00" fill="white"> &#160;&#160;&#160;&#160;&#160;&#160;&#160;&#160;&#160;&#160;&#160;</text>
<text text-anchor="middle" x="142.866" y="-267.261" font-family="Courier,monospace" font-size="14.00" fill="white">Eth0/11</text>
<text text-anchor="middle" x="146.866" y="-229.333" font-family="Courier,monospace" font-size="14.00" fill="white">Eth0/1</text>
</g>
</g>
</svg>
